<svg width="260" height="78" viewBox="0 0 260 78" fill="none" xmlns="http://www.w3.org/2000/svg">
<path d="M18.1671 50.3428C15.7614 50.3428 13.9069 49.9059 12.6038 49.0317C11.334 48.1576 10.3818 47.183 9.74691 46.1071H8.94498V49.6368H3.88281V14.3398H9.04522V28.1561H9.84715C10.2481 27.4837 10.7827 26.8451 11.451 26.24C12.1193 25.6013 13.0047 25.0802 14.1074 24.6768C15.21 24.2734 16.5633 24.0717 18.1671 24.0717C20.2388 24.0717 22.1434 24.576 23.8809 25.5844C25.6184 26.5929 27.0051 28.0552 28.0409 29.9714C29.0767 31.8875 29.5946 34.1734 29.5946 36.8291V37.5854C29.5946 40.2748 29.06 42.5774 27.9908 44.4935C26.955 46.3762 25.5683 47.8215 23.8308 48.83C22.1267 49.8385 20.2388 50.3428 18.1671 50.3428ZM16.6635 45.8046C18.9022 45.8046 20.74 45.0817 22.1768 43.6363C23.647 42.191 24.3821 40.1236 24.3821 37.4341V36.9803C24.3821 34.3247 23.6637 32.274 22.2269 30.8286C20.7901 29.3831 18.9357 28.6603 16.6635 28.6603C14.4582 28.6603 12.6205 29.3831 11.1503 30.8286C9.71351 32.274 8.9951 34.3247 8.9951 36.9803V37.4341C8.9951 40.1236 9.71351 42.191 11.1503 43.6363C12.6205 45.0817 14.4582 45.8046 16.6635 45.8046ZM35.9912 49.6368V24.7777H41.0536V27.7023H41.8555C42.2565 26.6602 42.8912 25.9038 43.7601 25.4332C44.6623 24.9289 45.7649 24.6768 47.0681 24.6768H50.0252V29.3663H46.8676C45.1968 29.3663 43.8267 29.8369 42.7577 30.7781C41.6883 31.6858 41.1539 33.0977 41.1539 35.0138V49.6368H35.9912ZM66.0708 50.3428C63.598 50.3428 61.3927 49.8385 59.4549 48.83C57.5503 47.7881 56.0467 46.3088 54.944 44.3927C53.8414 42.4766 53.2901 40.2075 53.2901 37.5854V36.8291C53.2901 34.207 53.8414 31.9547 54.944 30.0722C56.0467 28.1561 57.5503 26.677 59.4549 25.6349C61.3927 24.5928 63.598 24.0717 66.0708 24.0717C68.5431 24.0717 70.7484 24.5928 72.6867 25.6349C74.6245 26.677 76.145 28.1561 77.2476 30.0722C78.3503 31.9547 78.9016 34.207 78.9016 36.8291V37.5854C78.9016 40.2075 78.3503 42.4766 77.2476 44.3927C76.145 46.3088 74.6245 47.7881 72.6867 48.83C70.7484 49.8385 68.5431 50.3428 66.0708 50.3428ZM66.0708 45.7037C68.3426 45.7037 70.1807 44.9808 71.584 43.5355C73.0207 42.0562 73.7392 40.0227 73.7392 37.4341V36.9803C73.7392 34.3919 73.0375 32.3749 71.6342 30.9294C70.2308 29.4503 68.3763 28.7108 66.0708 28.7108C63.8318 28.7108 61.9942 29.4503 60.5575 30.9294C59.1542 32.3749 58.4525 34.3919 58.4525 36.9803V37.4341C58.4525 40.0227 59.1542 42.0562 60.5575 43.5355C61.9942 44.9808 63.8318 45.7037 66.0708 45.7037ZM96.8064 50.3428C94.4339 50.3428 92.2787 49.8385 90.3408 48.83C88.4363 47.8215 86.9158 46.3592 85.7799 44.4431C84.6772 42.527 84.1259 40.2244 84.1259 37.535V36.8795C84.1259 34.1902 84.6772 31.9043 85.7799 30.0218C86.9158 28.1057 88.4363 26.6434 90.3408 25.6349C92.2787 24.5928 94.4339 24.0717 96.8064 24.0717C99.1785 24.0717 101.2 24.5087 102.871 25.3828C104.541 26.2568 105.878 27.4165 106.881 28.862C107.916 30.3075 108.585 31.9043 108.885 33.6523L103.873 34.7112C103.706 33.6019 103.355 32.5934 102.821 31.6858C102.286 30.7781 101.534 30.0554 100.565 29.5175C99.5963 28.9797 98.3766 28.7108 96.9066 28.7108C95.4696 28.7108 94.1664 29.0469 92.9972 29.7192C91.8609 30.3579 90.9587 31.2992 90.2907 32.543C89.6223 33.7532 89.2883 35.2323 89.2883 36.9803V37.4341C89.2883 39.1822 89.6223 40.6782 90.2907 41.9219C90.9587 43.1656 91.8609 44.1071 92.9972 44.7457C94.1664 45.3842 95.4696 45.7037 96.9066 45.7037C99.0782 45.7037 100.732 45.1491 101.869 44.0397C103.004 42.8969 103.723 41.4511 104.024 39.7032L109.036 40.863C108.635 42.5774 107.916 44.1575 106.881 45.6029C105.878 47.0482 104.541 48.208 102.871 49.0821C101.2 49.9224 99.1785 50.3428 96.8064 50.3428ZM126.468 50.3428C124.095 50.3428 121.94 49.8385 120.002 48.83C118.097 47.8215 116.577 46.3592 115.441 44.4431C114.338 42.527 113.787 40.2244 113.787 37.535V36.8795C113.787 34.1902 114.338 31.9043 115.441 30.0218C116.577 28.1057 118.097 26.6434 120.002 25.6349C121.94 24.5928 124.095 24.0717 126.468 24.0717C128.84 24.0717 130.861 24.5087 132.532 25.3828C134.203 26.2568 135.539 27.4165 136.542 28.862C137.577 30.3075 138.246 31.9043 138.547 33.6523L133.535 34.7112C133.367 33.6019 133.016 32.5934 132.482 31.6858C131.947 30.7781 131.195 30.0554 130.227 29.5175C129.257 28.9797 128.038 28.7108 126.568 28.7108C125.131 28.7108 123.828 29.0469 122.658 29.7192C121.522 30.3579 120.62 31.2992 119.952 32.543C119.283 33.7532 118.949 35.2323 118.949 36.9803V37.4341C118.949 39.1822 119.283 40.6782 119.952 41.9219C120.62 43.1656 121.522 44.1071 122.658 44.7457C123.828 45.3842 125.131 45.7037 126.568 45.7037C128.739 45.7037 130.393 45.1491 131.53 44.0397C132.666 42.8969 133.384 41.4511 133.685 39.7032L138.697 40.863C138.296 42.5774 137.577 44.1575 136.542 45.6029C135.539 47.0482 134.203 48.208 132.532 49.0821C130.861 49.9224 128.84 50.3428 126.468 50.3428ZM156.229 50.3428C153.756 50.3428 151.551 49.8385 149.613 48.83C147.708 47.7881 146.205 46.3088 145.102 44.3927C144 42.4766 143.448 40.2075 143.448 37.5854V36.8291C143.448 34.207 144 31.9547 145.102 30.0722C146.205 28.1561 147.708 26.677 149.613 25.6349C151.551 24.5928 153.756 24.0717 156.229 24.0717C158.701 24.0717 160.907 24.5928 162.845 25.6349C164.783 26.677 166.303 28.1561 167.406 30.0722C168.508 31.9547 169.06 34.207 169.06 36.8291V37.5854C169.06 40.2075 168.508 42.4766 167.406 44.3927C166.303 46.3088 164.783 47.7881 162.845 48.83C160.907 49.8385 158.701 50.3428 156.229 50.3428ZM156.229 45.7037C158.501 45.7037 160.339 44.9808 161.742 43.5355C163.179 42.0562 163.897 40.0227 163.897 37.4341V36.9803C163.897 34.3919 163.196 32.3749 161.792 30.9294C160.389 29.4503 158.534 28.7108 156.229 28.7108C153.99 28.7108 152.152 29.4503 150.716 30.9294C149.312 32.3749 148.611 34.3919 148.611 36.9803V37.4341C148.611 40.0227 149.312 42.0562 150.716 43.5355C152.152 44.9808 153.99 45.7037 156.229 45.7037ZM175.487 49.6368V14.3398H180.649V49.6368H175.487ZM188.311 49.6368V24.7777H193.473V49.6368H188.311ZM190.917 21.3992C189.915 21.3992 189.063 21.0799 188.361 20.4412C187.692 19.7688 187.358 18.9116 187.358 17.8695C187.358 16.8275 187.692 15.987 188.361 15.3483C189.063 14.676 189.915 14.3398 190.917 14.3398C191.953 14.3398 192.805 14.676 193.473 15.3483C194.141 15.987 194.476 16.8275 194.476 17.8695C194.476 18.9116 194.141 19.7688 193.473 20.4412C192.805 21.0799 191.953 21.3992 190.917 21.3992ZM204.242 50.3428C203.072 50.3428 202.087 49.9563 201.285 49.183C200.516 48.4097 200.132 47.4181 200.132 46.208C200.132 44.9978 200.516 44.0228 201.285 43.2834C202.087 42.5101 203.072 42.1236 204.242 42.1236C205.411 42.1236 206.38 42.5101 207.149 43.2834C207.951 44.0567 208.352 45.0313 208.352 46.208C208.352 47.4181 207.951 48.4097 207.149 49.183C206.38 49.9563 205.411 50.3428 204.242 50.3428ZM225.11 50.3428C221.969 50.3428 219.363 49.6368 217.292 48.2249C215.22 46.8131 213.95 44.6783 213.483 41.8211L218.294 40.6613C218.561 42.0397 219.012 43.1321 219.647 43.9389C220.282 44.7457 221.067 45.3173 222.003 45.6533C222.972 45.9893 224.008 46.1575 225.11 46.1575C226.748 46.1575 228.001 45.8381 228.87 45.1995C229.772 44.5609 230.223 43.7372 230.223 42.7287C230.223 41.7202 229.805 40.9808 228.97 40.51C228.134 40.0393 226.898 39.6528 225.261 39.3503L223.557 39.0477C221.886 38.7452 220.365 38.3082 218.996 37.7367C217.626 37.1652 216.54 36.3752 215.738 35.3668C214.936 34.3583 214.535 33.0641 214.535 31.4841C214.535 29.131 215.404 27.3157 217.141 26.0383C218.879 24.7272 221.184 24.0717 224.058 24.0717C226.831 24.0717 229.103 24.7104 230.874 25.9878C232.679 27.2316 233.848 28.9293 234.383 31.0807L229.571 32.4421C229.27 30.9294 228.635 29.8705 227.667 29.2654C226.697 28.6267 225.495 28.3074 224.058 28.3074C222.655 28.3074 221.552 28.5763 220.75 29.1141C219.948 29.6184 219.547 30.3411 219.547 31.2824C219.547 32.2909 219.931 33.0304 220.7 33.5011C221.502 33.9717 222.571 34.3247 223.908 34.56L225.662 34.8625C227.432 35.1651 229.053 35.5853 230.523 36.1231C231.993 36.661 233.146 37.4341 233.982 38.4426C234.85 39.4511 235.285 40.7956 235.285 42.4766C235.285 44.9643 234.366 46.897 232.528 48.2754C230.69 49.6538 228.218 50.3428 225.11 50.3428ZM250.053 49.6368C248.549 49.6368 247.346 49.183 246.444 48.2754C245.575 47.3677 245.141 46.1575 245.141 44.6448V29.1646H238.325V24.7777H245.141V16.5585H250.303V24.7777H257.671V29.1646H250.303V43.7372C250.303 44.7457 250.771 45.2499 251.706 45.2499H256.869V49.6368H250.053Z" fill="#1C1C1C"/>
<path fill-rule="evenodd" clip-rule="evenodd" d="M88.3654 48.4551H172.535V53.3037H177.155V70.6796H172.535V77.1453H88.3654V70.6796H83.4043V53.3041H88.3654V48.4551ZM121.706 72.4147C121.739 72.566 121.831 72.6416 121.982 72.6416H123.937C124.087 72.6416 124.162 72.566 124.162 72.4147V72.3643L120.403 55.2201C120.386 55.0688 120.294 54.9932 120.127 54.9932H117.897C117.747 54.9932 117.655 55.0688 117.621 55.2201L113.887 72.3643C113.871 72.4486 113.879 72.5156 113.912 72.566C113.963 72.6164 114.029 72.6416 114.113 72.6416H116.017C116.184 72.6416 116.276 72.566 116.293 72.4147L116.819 69.5153C116.819 69.4819 116.828 69.4566 116.844 69.4397C116.878 69.4232 116.911 69.4145 116.945 69.4145H121.03C121.063 69.4145 121.088 69.4232 121.105 69.4397C121.138 69.4566 121.155 69.4819 121.155 69.5153L121.706 72.4147ZM117.321 67.4984C117.271 67.4984 117.245 67.4649 117.245 67.3975L118.924 58.4472C118.941 58.4137 118.958 58.3968 118.975 58.3968C118.991 58.3968 119.008 58.4137 119.025 58.4472L120.729 67.3975C120.729 67.4649 120.704 67.4984 120.654 67.4984H117.321ZM132.696 72.4399C132.746 72.5747 132.847 72.6416 132.997 72.6416H134.952C135.102 72.6416 135.177 72.583 135.177 72.4652L135.152 72.3643L132.596 64.6242C132.579 64.5738 132.596 64.5233 132.646 64.4729C133.398 64.1199 133.991 63.557 134.425 62.7837C134.86 61.9939 135.077 61.0693 135.077 60.0104C135.077 59.0358 134.893 58.1699 134.526 57.4135C134.175 56.6406 133.674 56.0438 133.022 55.6235C132.37 55.2035 131.619 54.9932 130.767 54.9932H126.281C126.114 54.9932 126.03 55.0775 126.03 55.2453V72.3895C126.03 72.5577 126.114 72.6416 126.281 72.6416H128.185C128.352 72.6416 128.436 72.5577 128.436 72.3895V64.952C128.436 64.885 128.469 64.8511 128.536 64.8511H130.29C130.341 64.8511 130.374 64.8763 130.391 64.9267L132.696 72.4399ZM128.436 57.1866C128.436 57.1196 128.469 57.0858 128.536 57.0858H130.391C131.076 57.0858 131.627 57.3548 132.045 57.8926C132.462 58.4137 132.671 59.128 132.671 60.0356C132.671 60.9097 132.462 61.6157 132.045 62.1534C131.627 62.6746 131.076 62.935 130.391 62.935H128.536C128.469 62.935 128.436 62.9015 128.436 62.8341V57.1866ZM146.082 55.2453C146.082 55.0775 145.998 54.9932 145.831 54.9932H136.834C136.667 54.9932 136.584 55.0775 136.584 55.2453V56.8336C136.584 57.0019 136.667 57.0858 136.834 57.0858H139.942C140.008 57.0858 140.042 57.1196 140.042 57.1866V72.3895C140.042 72.5577 140.125 72.6416 140.293 72.6416H142.197C142.364 72.6416 142.448 72.5577 142.448 72.3895V57.1866C142.448 57.1196 142.481 57.0858 142.548 57.0858H145.831C145.998 57.0858 146.082 57.0019 146.082 56.8336V55.2453Z" fill="#1C1C1C"/>
</svg>
