<svg width="1254" height="376" viewBox="0 0 1254 376" fill="none" xmlns="http://www.w3.org/2000/svg">
<path d="M87.621 242.676C76.0177 242.676 67.0736 240.57 60.7884 236.356C54.6644 232.142 50.0715 227.444 47.0096 222.258H43.1418V239.273H18.7266V69.123H43.6253V135.724H47.493C49.4269 132.483 52.0053 129.405 55.2285 126.488C58.4517 123.409 62.7223 120.897 68.0405 118.953C73.3587 117.008 79.8855 116.036 87.621 116.036C97.6128 116.036 106.799 118.466 115.179 123.328C123.559 128.189 130.247 135.238 135.243 144.475C140.239 153.712 142.737 164.731 142.737 177.533V181.179C142.737 194.143 140.158 205.243 135.001 214.479C130.005 223.555 123.317 230.522 114.937 235.383C106.718 240.245 97.6128 242.676 87.621 242.676ZM80.369 220.799C91.1664 220.799 100.03 217.314 106.96 210.347C114.051 203.38 117.596 193.414 117.596 180.449V178.262C117.596 165.46 114.131 155.575 107.202 148.607C100.272 141.639 91.3277 138.155 80.369 138.155C69.7326 138.155 60.8691 141.639 53.7781 148.607C46.8485 155.575 43.3835 165.46 43.3835 178.262V180.449C43.3835 193.414 46.8485 203.38 53.7781 210.347C60.8691 217.314 69.7326 220.799 80.369 220.799ZM173.588 239.273V119.439H198.004V133.537H201.872C203.806 128.513 206.867 124.867 211.058 122.599C215.409 120.168 220.727 118.953 227.012 118.953H241.275V141.558H226.045C217.987 141.558 211.379 143.827 206.223 148.364C201.066 152.739 198.488 159.545 198.488 168.782V239.273H173.588ZM318.664 242.676C306.738 242.676 296.101 240.245 286.755 235.383C277.569 230.361 270.317 223.23 264.999 213.993C259.681 204.757 257.021 193.818 257.021 181.179V177.533C257.021 164.893 259.681 154.036 264.999 144.961C270.317 135.724 277.569 128.594 286.755 123.571C296.101 118.547 306.738 116.036 318.664 116.036C330.588 116.036 341.225 118.547 350.573 123.571C359.919 128.594 367.253 135.724 372.571 144.961C377.889 154.036 380.548 164.893 380.548 177.533V181.179C380.548 193.818 377.889 204.757 372.571 213.993C367.253 223.23 359.919 230.361 350.573 235.383C341.225 240.245 330.588 242.676 318.664 242.676ZM318.664 220.313C329.621 220.313 338.486 216.828 345.255 209.861C352.184 202.73 355.649 192.928 355.649 180.449V178.262C355.649 165.784 352.265 156.061 345.496 149.093C338.728 141.963 329.784 138.398 318.664 138.398C307.865 138.398 299.002 141.963 292.073 149.093C285.305 156.061 281.92 165.784 281.92 178.262V180.449C281.92 192.928 285.305 202.73 292.073 209.861C299.002 216.828 307.865 220.313 318.664 220.313ZM466.904 242.676C455.461 242.676 445.067 240.245 435.72 235.383C426.534 230.522 419.201 223.473 413.722 214.236C408.404 205 405.745 193.9 405.745 180.936V177.776C405.745 164.812 408.404 153.793 413.722 144.718C419.201 135.481 426.534 128.432 435.72 123.571C445.067 118.547 455.461 116.036 466.904 116.036C478.345 116.036 488.096 118.142 496.154 122.356C504.211 126.569 510.658 132.159 515.493 139.127C520.488 146.095 523.712 153.793 525.162 162.219L500.989 167.324C500.182 161.976 498.49 157.115 495.912 152.739C493.333 148.364 489.707 144.88 485.034 142.287C480.36 139.695 474.477 138.398 467.388 138.398C460.457 138.398 454.171 140.019 448.532 143.26C443.052 146.338 438.7 150.876 435.479 156.872C432.255 162.705 430.644 169.835 430.644 178.262V180.449C430.644 188.876 432.255 196.088 435.479 202.083C438.7 208.078 443.052 212.616 448.532 215.695C454.171 218.773 460.457 220.313 467.388 220.313C477.861 220.313 485.839 217.639 491.319 212.292C496.798 206.783 500.264 199.813 501.714 191.388L525.887 196.978C523.954 205.243 520.488 212.859 515.493 219.827C510.658 226.794 504.211 232.385 496.154 236.599C488.096 240.649 478.345 242.676 466.904 242.676ZM609.962 242.676C598.519 242.676 588.125 240.245 578.778 235.383C569.592 230.522 562.259 223.473 556.78 214.236C551.462 205 548.803 193.9 548.803 180.936V177.776C548.803 164.812 551.462 153.793 556.78 144.718C562.259 135.481 569.592 128.432 578.778 123.571C588.125 118.547 598.519 116.036 609.962 116.036C621.403 116.036 631.154 118.142 639.212 122.356C647.269 126.569 653.716 132.159 658.551 139.127C663.546 146.095 666.77 153.793 668.22 162.219L644.047 167.324C643.24 161.976 641.548 157.115 638.97 152.739C636.391 148.364 632.764 144.88 628.092 142.287C623.418 139.695 617.535 138.398 610.446 138.398C603.515 138.398 597.229 140.019 591.59 143.26C586.11 146.338 581.758 150.876 578.537 156.872C575.313 162.705 573.702 169.835 573.702 178.262V180.449C573.702 188.876 575.313 196.088 578.537 202.083C581.758 208.078 586.11 212.616 591.59 215.695C597.229 218.773 603.515 220.313 610.446 220.313C620.919 220.313 628.897 217.639 634.377 212.292C639.856 206.783 643.321 199.813 644.772 191.388L668.945 196.978C667.011 205.243 663.546 212.859 658.551 219.827C653.716 226.794 647.269 232.385 639.212 236.599C631.154 240.649 621.403 242.676 609.962 242.676ZM753.504 242.676C741.577 242.676 730.941 240.245 721.595 235.383C712.409 230.361 705.156 223.23 699.838 213.993C694.52 204.757 691.861 193.818 691.861 181.179V177.533C691.861 164.893 694.52 154.036 699.838 144.961C705.156 135.724 712.409 128.594 721.595 123.571C730.941 118.547 741.577 116.036 753.504 116.036C765.428 116.036 776.064 118.547 785.413 123.571C794.759 128.594 802.092 135.724 807.41 144.961C812.729 154.036 815.388 164.893 815.388 177.533V181.179C815.388 193.818 812.729 204.757 807.41 213.993C802.092 223.23 794.759 230.361 785.413 235.383C776.064 240.245 765.428 242.676 753.504 242.676ZM753.504 220.313C764.461 220.313 773.326 216.828 780.094 209.861C787.023 202.73 790.489 192.928 790.489 180.449V178.262C790.489 165.784 787.105 156.061 780.336 149.093C773.568 141.963 764.623 138.398 753.504 138.398C742.705 138.398 733.842 141.963 726.913 149.093C720.144 156.061 716.76 165.784 716.76 178.262V180.449C716.76 192.928 720.144 202.73 726.913 209.861C733.842 216.828 742.705 220.313 753.504 220.313ZM846.386 239.273V69.123H871.285V239.273H846.386ZM908.237 239.273V119.439H933.135V239.273H908.237ZM920.807 103.153C915.972 103.153 911.863 101.613 908.478 98.5346C905.255 95.2936 903.644 91.1614 903.644 86.138C903.644 81.1146 905.255 77.0633 908.478 73.9845C911.863 70.7435 915.972 69.123 920.807 69.123C925.802 69.123 929.911 70.7435 933.135 73.9845C936.357 77.0633 937.97 81.1146 937.97 86.138C937.97 91.1614 936.357 95.2936 933.135 98.5346C929.911 101.613 925.802 103.153 920.807 103.153ZM985.074 242.676C979.433 242.676 974.68 240.813 970.812 237.085C967.105 233.357 965.252 228.577 965.252 222.744C965.252 216.91 967.105 212.21 970.812 208.646C974.68 204.918 979.433 203.055 985.074 203.055C990.713 203.055 995.388 204.918 999.095 208.646C1002.96 212.373 1004.9 217.071 1004.9 222.744C1004.9 228.577 1002.96 233.357 999.095 237.085C995.388 240.813 990.713 242.676 985.074 242.676ZM1085.72 242.676C1070.57 242.676 1058 239.273 1048.01 232.467C1038.02 225.661 1031.9 215.37 1029.64 201.597L1052.85 196.006C1054.14 202.651 1056.31 207.916 1059.38 211.806C1062.44 215.695 1066.22 218.45 1070.74 220.07C1075.41 221.69 1080.41 222.501 1085.72 222.501C1093.62 222.501 1099.66 220.961 1103.85 217.882C1108.21 214.804 1110.38 210.833 1110.38 205.972C1110.38 201.11 1108.37 197.546 1104.34 195.277C1100.31 193.007 1094.35 191.145 1086.45 189.686L1078.23 188.228C1070.17 186.769 1062.84 184.663 1056.23 181.908C1049.62 179.153 1044.39 175.345 1040.52 170.484C1036.65 165.622 1034.72 159.383 1034.72 151.767C1034.72 140.424 1038.91 131.673 1047.29 125.515C1055.67 119.196 1066.79 116.036 1080.65 116.036C1094.02 116.036 1104.98 119.115 1113.52 125.272C1122.23 131.268 1127.87 139.452 1130.45 149.823L1107.24 156.385C1105.79 149.093 1102.73 143.989 1098.05 141.072C1093.38 137.993 1087.58 136.454 1080.65 136.454C1073.88 136.454 1068.56 137.75 1064.69 140.343C1060.83 142.773 1058.89 146.258 1058.89 150.795C1058.89 155.656 1060.74 159.221 1064.45 161.49C1068.32 163.759 1073.48 165.46 1079.92 166.594L1088.38 168.053C1096.92 169.511 1104.74 171.537 1111.83 174.13C1118.92 176.722 1124.48 180.449 1128.51 185.311C1132.7 190.172 1134.8 196.653 1134.8 204.756C1134.8 216.749 1130.36 226.065 1121.5 232.71C1112.64 239.354 1100.71 242.676 1085.72 242.676ZM1206.02 239.273C1198.77 239.273 1192.97 237.085 1188.62 232.71C1184.43 228.334 1182.33 222.501 1182.33 215.209V140.586H1149.46V119.439H1182.33V79.8182H1207.23V119.439H1242.77V140.586H1207.23V210.833C1207.23 215.695 1209.49 218.125 1214 218.125H1238.9V239.273H1206.02Z" fill="#1C1C1C"/>
<path fill-rule="evenodd" clip-rule="evenodd" d="M832.148 233.578H426.19V256.952H402.262V340.711H426.19V371.879H832.148V340.711H854.427V256.95H832.148V233.578Z" fill="#1C1C1C"/>
<path d="M588.331 350.168C587.606 350.168 587.162 349.803 587.002 349.074L584.342 335.098C584.342 334.936 584.261 334.815 584.101 334.733C584.019 334.653 583.899 334.611 583.738 334.611H564.037C563.874 334.611 563.714 334.653 563.553 334.733C563.472 334.815 563.432 334.936 563.432 335.098L560.894 349.074C560.813 349.803 560.369 350.168 559.565 350.168H550.379C549.975 350.168 549.653 350.046 549.412 349.803C549.249 349.56 549.21 349.237 549.291 348.831L567.3 266.187C567.461 265.458 567.904 265.093 568.63 265.093H579.387C580.191 265.093 580.635 265.458 580.716 266.187L598.847 348.831V349.074C598.847 349.803 598.484 350.168 597.759 350.168H588.331ZM565.487 324.889C565.487 325.213 565.608 325.375 565.85 325.375H581.925C582.167 325.375 582.288 325.213 582.288 324.889L574.069 281.744C573.987 281.582 573.906 281.501 573.827 281.501C573.746 281.501 573.665 281.582 573.585 281.744L565.487 324.889ZM641.458 350.168C640.733 350.168 640.249 349.845 640.008 349.196L628.888 312.978C628.807 312.735 628.646 312.614 628.404 312.614H619.944C619.621 312.614 619.46 312.777 619.46 313.1V348.953C619.46 349.764 619.056 350.168 618.251 350.168H609.065C608.259 350.168 607.857 349.764 607.857 348.953V266.309C607.857 265.5 608.259 265.093 609.065 265.093H630.701C634.81 265.093 638.436 266.107 641.579 268.132C644.721 270.158 647.139 273.035 648.831 276.761C650.602 280.407 651.49 284.581 651.49 289.279C651.49 294.383 650.442 298.84 648.347 302.648C646.251 306.375 643.392 309.089 639.766 310.791C639.524 311.034 639.443 311.277 639.524 311.52L651.853 348.831L651.973 349.317C651.973 349.885 651.611 350.168 650.886 350.168H641.458ZM619.944 275.181C619.621 275.181 619.46 275.344 619.46 275.667V302.891C619.46 303.215 619.621 303.377 619.944 303.377H628.888C632.191 303.377 634.85 302.122 636.865 299.609C638.878 297.017 639.887 293.614 639.887 289.4C639.887 285.025 638.878 281.582 636.865 279.07C634.85 276.478 632.191 275.181 628.888 275.181H619.944ZM703.357 265.093C704.162 265.093 704.566 265.5 704.566 266.309V273.965C704.566 274.776 704.162 275.181 703.357 275.181H687.524C687.201 275.181 687.04 275.344 687.04 275.667V348.953C687.04 349.764 686.636 350.168 685.831 350.168H676.646C675.839 350.168 675.437 349.764 675.437 348.953V275.667C675.437 275.344 675.274 275.181 674.953 275.181H659.966C659.159 275.181 658.757 274.776 658.757 273.965V266.309C658.757 265.5 659.159 265.093 659.966 265.093H703.357Z" fill="#BE504F"/>
</svg>
